# xmcd
#
# Track frame offsets:
#	150
#	12498
#	21722
#	34333
#	45701
#	56423
#	70475
#	80790
#	93646
#	106385
#	120121
#	130935
#	140354
#	149384
#	159495
#	172413
#	184020
#	195847
#	204990
#	216113
#
# Disc length: 3006 seconds
#
# Revision: 1
# Processed by: cddbd v1.5.2PL0 Copyright (c) Steve Scherf et al.
# Submitted via: audiograbber 1.83.01
#
DISCID=290bbc14
DTITLE=Jackie Wilson - Gold [CD 3)
DYEAR=2019
DGENRE=Soul
TTITLE0=Brand New Thing
TTITLE1=3 Days, 1 Hour, 30 Minutes
TTITLE2=Soul Galore
TTITLE3=New Girl In Town
TTITLE4=Baby Thats All
TTITLE5=Shake A Hand [with Linda Hopkins]
TTITLE6=I'm Coming On Back To You
TTITLE7=Big Boss Line
TTITLE8=Doggin' Around
TTITLE9=I Just Can't Help It
TTITLE10=She's Alright
TTITLE11=I'll be Satisfied
TTITLE12=You better Know It
TTITLE13=Talk That Talk
TTITLE14=My Empty Arms
TTITLE15=Am I The Man
TTITLE16=The Tear Of The Year
TTITLE17=Please Tell Me Why
TTITLE18=Call Her Up
TTITLE19=That's Why (I Love You So)
EXTD=
EXTT0=
EXTT1=
EXTT2=
EXTT3=
EXTT4=
EXTT5=
EXTT6=
EXTT7=
EXTT8=
EXTT9=
EXTT10=
EXTT11=
EXTT12=
EXTT13=
EXTT14=
EXTT15=
EXTT16=
EXTT17=
EXTT18=
EXTT19=
PLAYORDER=
